<svg xmlns="http://www.w3.org/2000/svg" width="27.848" height="31" viewBox="0 0 27.848 31"><path d="M138.02,421.625a4.693,4.693,0,0,1-4.688-4.688.938.938,0,0,1,1.875,0,2.812,2.812,0,0,0,5.625,0,.938.938,0,0,1,1.875,0A4.693,4.693,0,0,1,138.02,421.625Zm0,0" transform="translate(-125.52 -390.625)" fill="#fff"/><path d="M22.812,86.5H2.187A2.188,2.188,0,0,1,.765,82.65a.864.864,0,0,1,.1-.075A8.4,8.4,0,0,0,3.75,76.238V72.75A8.76,8.76,0,0,1,12.5,64a3.765,3.765,0,0,1,.616.038.937.937,0,1,1-.308,1.849,1.966,1.966,0,0,0-.309-.011A6.883,6.883,0,0,0,5.625,72.75v3.487A10.281,10.281,0,0,1,2,84.076c-.019.015-.035.029-.055.043a.309.309,0,0,0-.066.194.316.316,0,0,0,.312.312H22.812a.316.316,0,0,0,.313-.312.3.3,0,0,0-.068-.194c-.019-.014-.035-.027-.054-.043a10.278,10.278,0,0,1-3.629-7.839V74.875a.937.937,0,1,1,1.875,0v1.362a8.4,8.4,0,0,0,2.889,6.341.911.911,0,0,1,.1.073A2.187,2.187,0,0,1,22.812,86.5Zm0,0" transform="translate(0 -59.25)" fill="#fff"/><path d="M268.512,6.25A6.25,6.25,0,1,1,262.262,0,6.25,6.25,0,0,1,268.512,6.25Zm0,0" transform="translate(-240.664)" fill="#8dc043"/></svg>