<svg xmlns="http://www.w3.org/2000/svg" width="30" height="30" viewBox="0 0 30 30"><path d="M15.941,30H14.059A2.765,2.765,0,0,1,11.3,27.238V26.6a12.111,12.111,0,0,1-1.881-.781l-.451.451a2.762,2.762,0,0,1-3.906,0L3.728,24.941a2.762,2.762,0,0,1,0-3.906l.451-.451A12.112,12.112,0,0,1,3.4,18.7H2.762A2.765,2.765,0,0,1,0,15.941V14.059A2.765,2.765,0,0,1,2.762,11.3H3.4a12.115,12.115,0,0,1,.781-1.881l-.451-.451a2.762,2.762,0,0,1,0-3.906L5.059,3.728a2.761,2.761,0,0,1,3.906,0l.451.451A12.123,12.123,0,0,1,11.3,3.4V2.762A2.765,2.765,0,0,1,14.059,0h1.883A2.765,2.765,0,0,1,18.7,2.762V3.4a12.111,12.111,0,0,1,1.881.781l.451-.451a2.762,2.762,0,0,1,3.906,0l1.331,1.331a2.762,2.762,0,0,1,0,3.906l-.451.451A12.112,12.112,0,0,1,26.6,11.3h.637A2.765,2.765,0,0,1,30,14.059v1.883A2.765,2.765,0,0,1,27.238,18.7H26.6a12.115,12.115,0,0,1-.781,1.881l.451.451a2.762,2.762,0,0,1,0,3.906l-1.331,1.331a2.761,2.761,0,0,1-3.906,0l-.451-.451A12.122,12.122,0,0,1,18.7,26.6v.637A2.765,2.765,0,0,1,15.941,30ZM9.71,23.975A10.36,10.36,0,0,0,12.4,25.09a.879.879,0,0,1,.659.851v1.3a1,1,0,0,0,1,1h1.883a1,1,0,0,0,1-1v-1.3a.879.879,0,0,1,.659-.851,10.36,10.36,0,0,0,2.685-1.115.879.879,0,0,1,1.069.135l.919.919a1,1,0,0,0,1.419,0L25.029,23.7a1,1,0,0,0,0-1.419l-.92-.92a.879.879,0,0,1-.135-1.069A10.358,10.358,0,0,0,25.09,17.6a.879.879,0,0,1,.851-.659h1.3a1,1,0,0,0,1-1V14.059a1,1,0,0,0-1-1h-1.3a.879.879,0,0,1-.851-.659A10.36,10.36,0,0,0,23.975,9.71a.879.879,0,0,1,.135-1.069l.919-.919a1,1,0,0,0,0-1.419L23.7,4.971a1,1,0,0,0-1.419,0l-.92.92a.879.879,0,0,1-1.069.135A10.36,10.36,0,0,0,17.6,4.911a.879.879,0,0,1-.659-.851v-1.3a1,1,0,0,0-1-1H14.059a1,1,0,0,0-1,1v1.3a.879.879,0,0,1-.659.851A10.36,10.36,0,0,0,9.71,6.025.879.879,0,0,1,8.641,5.89l-.919-.919a1,1,0,0,0-1.419,0L4.971,6.3a1,1,0,0,0,0,1.419l.92.92A.879.879,0,0,1,6.025,9.71,10.358,10.358,0,0,0,4.911,12.4a.879.879,0,0,1-.851.659h-1.3a1,1,0,0,0-1,1v1.883a1,1,0,0,0,1,1h1.3a.879.879,0,0,1,.851.659A10.36,10.36,0,0,0,6.025,20.29a.879.879,0,0,1-.135,1.069l-.919.919a1,1,0,0,0,0,1.419L6.3,25.029a1,1,0,0,0,1.419,0l.92-.92A.883.883,0,0,1,9.71,23.975Z" transform="translate(0 0)" fill="#fff"/><path d="M151.336,158.073a6.736,6.736,0,1,1,6.736-6.736A6.744,6.744,0,0,1,151.336,158.073Zm0-11.659a4.922,4.922,0,1,0,4.922,4.922A4.928,4.928,0,0,0,151.336,146.414Z" transform="translate(-136.336 -136.336)" fill="#fff"/></svg>